<svg width="283" height="52" viewBox="0 0 283 52" fill="none" xmlns="http://www.w3.org/2000/svg">
<rect x="210" y="30" width="16" height="5" fill="#D9D9D9"/>
<rect x="140" y="30" width="16" height="5" fill="#D9D9D9"/>
<rect x="70" y="30" width="16" height="5" fill="#D9D9D9"/>
<rect x="223" y="12" width="60" height="40" rx="10" fill="#CFBAF0"/>
<rect x="223.5" y="12.5" width="59" height="39" rx="9.5" stroke="black" stroke-opacity="0.2"/>
<rect x="153" y="12" width="60" height="40" rx="10" fill="#F1C0E8"/>
<rect x="153.5" y="12.5" width="59" height="39" rx="9.5" stroke="black" stroke-opacity="0.2"/>
<rect x="83" y="12" width="60" height="40" rx="10" fill="#FFCFD2"/>
<rect x="83.5" y="12.5" width="59" height="39" rx="9.5" stroke="black" stroke-opacity="0.2"/>
<circle cx="20" cy="32" r="20" fill="#FDE4CF"/>
<circle cx="20" cy="32" r="19.5" stroke="black" stroke-opacity="0.2"/>
<mask id="path-12-inside-1_3_284" fill="white">
<path d="M20 12H63C68.5229 12 73 16.4772 73 22V42C73 47.5228 68.5228 52 63 52H20V12Z"/>
</mask>
<path d="M20 12H63C68.5229 12 73 16.4772 73 22V42C73 47.5228 68.5228 52 63 52H20V12Z" fill="#FDE4CF"/>
<path d="M20 11H63C69.0751 11 74 15.9249 74 22H72C72 17.0294 67.9706 13 63 13H20V11ZM74 42C74 48.0751 69.0751 53 63 53H20V51H63C67.9706 51 72 46.9706 72 42H74ZM20 52V12V52ZM63 11C69.0751 11 74 15.9249 74 22V42C74 48.0751 69.0751 53 63 53V51C67.9706 51 72 46.9706 72 42V22C72 17.0294 67.9706 13 63 13V11Z" fill="black" fill-opacity="0.2" mask="url(#path-12-inside-1_3_284)"/>
<rect x="20" width="11" height="13" fill="#D9D9D9"/>
<rect x="20.5" y="0.5" width="10" height="12" stroke="black" stroke-opacity="0.2"/>
</svg>
